<svg xmlns="http://www.w3.org/2000/svg" viewBox="0 0 64 64">
  <rect width="64" height="64" rx="14" fill="#FFFFFF"/>
  <path d="M28 10h8v14h14v8H36v14h-8V32H14v-8h14z" fill="#D6221B"/>
  <path d="M20 40c0 4 2 6 2 6s2-2 2-6c0-3-2-4-2-4s-2 1-2 4z" fill="none" stroke="#D6221B" stroke-width="2.4" stroke-linecap="round" stroke-linejoin="round" transform="translate(0,3)"/>
  <path d="M18 38v6a4 4 0 0 0 4 4h1a4 4 0 0 0 4-4v-3" fill="none" stroke="#D6221B" stroke-width="2.4" stroke-linecap="round" stroke-linejoin="round"/>
  <path d="M27 41v3a4 4 0 0 0 4 4" fill="none" stroke="#D6221B" stroke-width="2.4" stroke-linecap="round" stroke-linejoin="round"/>
  <circle cx="33" cy="49.5" r="2.6" fill="none" stroke="#D6221B" stroke-width="2.4"/>
</svg>
